<?xml version="1.0" standalone="no"?>
<!DOCTYPE svg PUBLIC "-//W3C//DTD SVG 20010904//EN"
 "http://www.w3.org/TR/2001/REC-SVG-20010904/DTD/svg10.dtd">
<svg version="1.0" xmlns="http://www.w3.org/2000/svg"
 width="1530.000000pt" height="1530.000000pt" viewBox="0 0 1530.000000 1530.000000"
 preserveAspectRatio="xMidYMid meet">
<metadata>
Created by potrace 1.14, written by Peter Selinger 2001-2017
</metadata>
<g transform="translate(0.000000,1530.000000) scale(0.100000,-0.100000)"
fill="#000000" stroke="none">
<path d="M3420 15198 c0 -160 1 -272 1 -285 0 -20 0 -461 0 -480 0 -10 0 -74
0 -143 1 -69 1 -132 0 -140 0 -8 0 -80 0 -160 1 -80 1 -151 0 -157 0 -12 -1
-167 0 -198 0 -21 0 -461 0 -482 0 -10 0 -74 0 -143 1 -69 1 -131 0 -137 0
-12 -1 -166 0 -198 0 -23 0 -463 0 -480 -1 -19 0 -145 0 -165 0 -8 0 -20 -1
-25 -1 -6 -2 -96 -1 -201 l1 -191 28 -14 c15 -7 39 -23 53 -34 24 -18 65 -45
153 -99 17 -10 34 -23 38 -30 4 -6 8 -7 8 -1 0 6 3 6 8 -1 4 -5 48 -37 97 -69
50 -32 221 -145 380 -250 160 -105 305 -200 323 -210 17 -11 32 -23 32 -27 0
-4 4 -8 10 -8 5 0 44 -24 87 -53 43 -29 130 -86 193 -127 63 -40 118 -78 122
-84 4 -6 11 -7 15 -2 4 4 8 410 8 901 1 492 3 896 6 899 2 3 19 -7 37 -22 17
-15 110 -81 207 -147 96 -66 255 -175 352 -243 98 -67 186 -128 197 -135 10
-6 24 -17 30 -22 10 -10 140 -99 174 -120 9 -5 22 -16 30 -22 7 -7 17 -13 22
-13 5 0 17 -8 27 -18 10 -10 52 -40 93 -67 41 -27 77 -52 80 -56 3 -3 41 -30
85 -59 44 -29 82 -57 83 -62 2 -4 9 -8 15 -8 7 0 25 -11 41 -25 16 -14 33 -25
37 -25 4 0 14 -6 21 -13 7 -7 63 -47 123 -88 252 -174 280 -194 283 -201 2 -4
8 -8 12 -8 5 0 67 -40 137 -90 70 -49 135 -94 143 -100 8 -6 68 -47 134 -93
65 -45 126 -86 135 -92 9 -5 18 -13 21 -16 3 -3 32 -23 65 -44 33 -22 62 -43
63 -47 2 -5 8 -8 14 -8 5 0 15 -6 23 -12 7 -7 50 -38 95 -68 86 -58 177 -123
197 -140 7 -5 16 -10 21 -10 4 0 17 -8 28 -17 10 -10 55 -43 99 -73 81 -55
114 -78 263 -182 45 -32 87 -58 92 -58 6 0 10 -4 10 -8 0 -4 15 -16 33 -27 17
-10 34 -21 37 -25 3 -3 34 -26 70 -50 36 -24 85 -58 110 -75 25 -17 83 -57
130 -89 122 -84 118 -76 58 -121 -29 -22 -66 -48 -83 -59 -16 -10 -32 -22 -35
-25 -3 -4 -61 -47 -130 -96 -69 -48 -127 -91 -130 -94 -3 -3 -27 -22 -55 -40
-27 -19 -52 -37 -55 -40 -3 -4 -27 -22 -55 -41 -27 -19 -51 -38 -53 -42 -2 -4
-8 -8 -13 -8 -8 0 -62 -38 -126 -88 -12 -9 -37 -27 -55 -40 -18 -12 -73 -52
-121 -87 -48 -36 -92 -65 -98 -65 -5 0 -9 -4 -9 -10 0 -5 -4 -10 -10 -10 -6 0
-19 -8 -29 -18 -28 -24 -36 -30 -131 -97 -47 -33 -92 -65 -100 -72 -8 -7 -91
-67 -185 -135 -93 -67 -172 -125 -175 -128 -3 -4 -16 -13 -30 -20 -14 -7 -38
-24 -55 -37 -28 -23 -145 -109 -195 -143 -46 -32 -156 -112 -173 -125 -9 -8
-22 -15 -27 -15 -6 0 -10 -3 -10 -7 0 -5 -17 -19 -38 -33 -20 -14 -39 -27 -42
-30 -6 -7 -166 -121 -189 -135 -9 -5 -18 -12 -21 -15 -20 -20 -91 -70 -99 -70
-6 0 -11 -4 -11 -8 0 -5 -29 -28 -65 -51 -36 -24 -68 -47 -70 -51 -3 -5 12
-19 32 -31 21 -13 40 -27 41 -31 2 -4 10 -8 17 -8 8 0 20 -6 27 -13 17 -16 96
-67 103 -67 4 0 13 -6 20 -12 34 -30 50 -43 52 -41 5 4 63 -32 63 -39 0 -5 5
-8 10 -8 9 0 53 -27 270 -167 19 -13 40 -27 47 -33 7 -5 14 -10 17 -10 2 0 60
-36 128 -80 67 -43 168 -107 223 -142 55 -34 102 -66 103 -70 2 -5 9 -8 15 -8
7 0 30 -14 51 -30 22 -17 44 -30 50 -30 5 0 19 -8 30 -18 18 -16 282 -188 333
-217 21 -12 56 -34 143 -90 36 -24 126 -81 200 -128 74 -47 140 -91 147 -97 7
-5 14 -10 17 -10 3 0 94 -57 203 -127 109 -71 210 -134 226 -142 15 -8 27 -18
27 -23 0 -4 5 -8 10 -8 6 0 23 -9 38 -19 41 -29 175 -115 192 -124 8 -4 44
-26 80 -50 63 -40 65 -43 48 -59 -10 -10 -21 -19 -25 -20 -13 -2 -118 -72
-121 -80 -2 -5 -10 -8 -18 -8 -8 0 -14 -5 -14 -11 0 -5 -4 -8 -9 -5 -5 4 -11
2 -13 -2 -1 -5 -48 -38 -103 -74 -55 -36 -234 -154 -398 -262 -164 -108 -302
-196 -307 -196 -4 0 -10 -3 -12 -7 -1 -5 -75 -55 -163 -113 -88 -58 -164 -109
-170 -113 -5 -4 -62 -41 -125 -82 -63 -40 -119 -77 -125 -82 -5 -5 -28 -19
-50 -32 -22 -14 -50 -33 -62 -44 -13 -11 -23 -16 -23 -11 0 5 -4 4 -8 -1 -9
-14 -132 -95 -143 -95 -5 0 -9 -4 -9 -8 0 -5 -10 -14 -22 -21 -39 -21 -262
-166 -540 -352 -65 -44 -122 -79 -128 -79 -5 0 -10 -4 -10 -10 0 -5 -5 -10
-10 -10 -6 0 -16 -5 -23 -11 -23 -20 -359 -239 -367 -239 -5 0 -10 -4 -12 -8
-1 -4 -55 -42 -118 -83 -230 -149 -425 -278 -437 -288 -7 -6 -14 -11 -16 -11
-4 0 -256 -164 -272 -177 -5 -5 -35 -24 -65 -43 -30 -19 -56 -38 -58 -42 -2
-5 -7 -8 -12 -8 -7 0 -139 -84 -223 -142 l-28 -19 1 43 c0 24 1 57 1 73 1 17
0 37 0 45 -1 17 -1 46 2 102 1 20 -2 34 -7 31 -5 -4 -6 -1 -2 6 11 16 13 131
3 131 -5 0 -5 5 -2 11 10 15 11 199 2 199 -5 0 -5 5 -1 12 10 16 11 149 1 155
-4 2 -4 10 0 16 4 6 7 147 8 314 l1 302 -96 63 c-52 34 -155 102 -228 150 -73
48 -137 88 -142 88 -4 0 -10 3 -12 8 -3 7 -482 323 -502 331 -5 2 -19 12 -29
22 -11 10 -34 25 -52 33 -18 9 -38 22 -45 31 -7 8 -18 15 -25 15 -8 0 -15 3
-17 8 -1 4 -41 32 -88 61 -47 29 -87 57 -88 62 -2 5 -8 9 -13 9 -6 0 -43 23
-84 50 -41 28 -77 50 -80 50 -4 0 -13 7 -21 15 -9 8 -19 15 -23 15 -7 0 -5
-5380 3 -5387 3 -3 96 54 121 74 6 5 28 20 50 33 22 13 42 28 43 32 2 4 8 8
13 8 5 0 64 36 130 80 67 44 125 80 130 80 5 0 9 5 9 10 0 6 4 10 10 10 5 0
35 17 67 39 32 21 103 68 158 103 55 36 160 104 233 151 73 48 135 87 138 87
2 0 10 5 17 11 14 12 269 179 274 179 2 0 25 15 51 33 26 18 55 36 65 40 9 3
17 11 17 17 0 5 4 10 10 10 5 0 68 38 140 85 72 47 133 85 136 85 3 0 10 5 17
11 7 6 64 44 127 85 63 40 122 78 130 84 8 5 85 55 170 110 85 55 162 105 170
110 8 6 53 35 100 65 47 30 90 59 97 65 7 5 17 10 22 10 5 0 16 6 23 13 20 19
108 77 117 77 5 0 15 7 22 16 7 9 22 20 34 25 22 10 57 31 65 39 3 3 43 30 90
59 47 30 124 80 172 113 49 32 90 58 93 58 3 0 11 5 18 11 13 11 239 159 243
159 1 0 49 31 106 68 57 37 132 87 168 109 36 23 70 46 75 50 6 5 28 20 50 33
32 19 258 165 325 210 8 5 78 50 155 100 77 49 147 94 155 100 8 6 74 48 145
94 72 47 136 89 143 96 6 6 12 7 12 3 0 -4 4 -3 8 2 4 6 45 35 92 65 47 29
138 89 204 132 65 43 120 78 123 78 2 0 19 10 36 23 18 12 41 28 52 35 54 34
81 52 90 59 6 5 39 27 75 48 36 22 71 46 78 52 7 7 17 13 22 13 5 0 15 6 22
13 7 7 32 24 56 37 23 13 42 27 42 32 0 4 6 8 13 8 7 0 22 7 32 15 44 34 141
94 153 95 6 0 12 5 12 10 0 6 16 18 35 27 19 9 35 20 35 25 0 4 4 8 10 8 5 0
39 20 76 45 36 25 67 45 69 45 3 0 30 18 62 39 106 71 214 141 219 141 3 0 10
5 17 11 21 18 207 138 207 133 0 -3 12 7 27 21 15 14 31 25 35 25 6 0 111 66
238 151 8 5 51 33 95 61 44 29 140 92 214 140 73 48 135 88 137 88 4 0 303
195 319 208 6 4 28 19 50 32 22 13 92 58 156 100 64 41 182 118 263 170 81 52
167 109 192 126 l44 31 -72 49 c-40 27 -75 51 -78 54 -6 7 -243 177 -293 210
-20 14 -37 28 -37 33 0 4 -4 7 -10 7 -5 0 -18 7 -27 15 -10 8 -67 49 -128 92
-60 42 -112 80 -115 83 -3 4 -34 26 -69 51 -35 24 -73 51 -85 59 -11 8 -49 35
-82 60 -34 25 -72 52 -84 60 -12 8 -44 31 -70 50 -26 19 -58 42 -70 50 -12 8
-53 38 -90 65 -38 28 -145 104 -237 170 -92 66 -172 123 -178 127 -21 17 -197
144 -213 153 -9 6 -19 12 -22 15 -12 13 -148 110 -154 110 -3 0 -14 7 -23 16
-10 8 -43 33 -73 55 -30 21 -65 46 -77 55 -66 48 -203 147 -284 204 -51 36
-97 70 -103 75 -12 10 -24 18 -83 56 -18 12 -33 25 -33 29 0 5 -9 12 -20 15
-11 3 -26 12 -32 19 -7 6 -35 27 -63 46 -27 19 -56 41 -65 47 -8 7 -23 19 -33
26 -17 12 -16 15 25 43 23 16 49 35 56 42 7 6 17 12 22 12 5 0 15 6 22 13 11
11 114 86 185 135 47 33 329 233 338 240 6 4 39 28 75 52 36 25 67 47 70 50 3
3 12 10 22 15 14 9 269 189 323 229 11 8 110 78 220 156 110 78 209 148 220
155 11 8 65 46 120 85 55 38 107 75 115 82 8 7 34 26 59 41 24 16 50 34 57 40
16 14 35 29 56 42 43 28 134 91 138 95 6 7 332 239 358 255 9 6 21 14 26 18 6
4 47 33 91 65 44 31 81 60 83 64 2 4 8 8 13 8 5 0 45 26 88 57 44 32 111 80
150 107 l70 50 -64 43 c-35 24 -69 43 -74 43 -5 0 -11 4 -13 8 -4 10 -96 72
-108 72 -4 0 -10 3 -12 8 -3 8 -64 52 -73 52 -2 0 -73 45 -156 100 -83 55
-152 100 -154 100 -1 0 -56 35 -121 78 -66 43 -122 78 -126 78 -3 -1 -17 8
-30 20 -13 11 -41 31 -63 45 -22 13 -44 27 -50 31 -21 17 -256 168 -261 168
-2 0 -10 5 -17 11 -15 13 -368 243 -398 260 -13 6 -28 16 -33 21 -6 5 -87 58
-181 118 -93 60 -175 114 -182 120 -7 5 -16 10 -21 10 -5 0 -17 9 -27 20 -10
11 -22 20 -26 20 -8 0 -165 101 -186 119 -7 6 -15 11 -18 11 -3 0 -28 16 -55
35 -27 19 -54 35 -60 35 -5 0 -10 5 -10 10 0 6 -4 10 -10 10 -5 0 -35 18 -67
39 -127 86 -215 141 -223 141 -5 0 -10 3 -12 8 -4 10 -85 62 -97 62 -5 0 -11
3 -13 8 -1 4 -28 24 -58 43 -30 20 -90 59 -133 88 -43 28 -81 51 -83 51 -3 0
-10 5 -17 11 -25 22 -318 209 -327 209 -6 0 -10 5 -10 10 0 6 -7 10 -15 10 -8
0 -15 5 -15 10 0 6 -5 10 -10 10 -6 0 -16 5 -23 11 -23 20 -362 240 -379 245
-10 4 -18 10 -18 15 0 5 -4 9 -10 9 -5 0 -50 27 -99 60 -50 33 -95 60 -101 60
-5 0 -10 3 -10 8 0 4 -33 27 -72 52 -40 24 -77 48 -83 53 -9 7 -168 111 -220
144 -11 7 -28 16 -37 19 -10 3 -18 9 -18 13 0 4 -15 15 -32 25 -18 10 -69 42
-113 71 -249 164 -548 355 -555 355 -5 0 -10 4 -12 8 -3 8 -375 252 -384 252
-3 0 -10 5 -17 11 -24 21 -317 209 -326 209 -5 0 -11 4 -13 8 -4 11 -97 72
-109 72 -5 0 -9 5 -9 10 0 6 -4 10 -10 10 -8 0 -200 123 -282 181 -15 10 -30
19 -33 19 -3 0 -11 5 -18 10 -17 15 -317 210 -323 210 -3 0 -10 5 -17 11 -24
21 -348 229 -356 229 -5 0 -11 3 -13 8 -4 11 -114 82 -126 82 -6 0 -12 3 -14
8 -5 10 -206 142 -218 142 -5 0 -10 3 -10 8 0 4 -20 18 -45 32 -25 14 -45 29
-45 34 0 5 -3 7 -6 4 -3 -4 -13 0 -22 9 -9 8 -66 45 -127 83 -60 38 -114 73
-120 77 -5 5 -35 24 -65 43 -30 19 -56 38 -58 42 -2 5 -10 8 -18 8 -8 0 -14 5
-14 10 0 6 -4 10 -9 10 -5 0 -42 22 -83 48 -40 27 -99 65 -131 85 l-58 37 1
-102z"/>
<path d="M3419 10998 c0 -330 1 -495 2 -565 0 -20 0 -461 0 -480 0 -10 0 -74
0 -143 1 -69 1 -131 1 -137 0 -7 -1 -195 -1 -418 0 -223 0 -412 0 -420 0 -8 0
-116 0 -240 0 -124 0 -232 0 -240 0 -8 0 -44 0 -80 0 -36 0 -72 0 -80 0 -18 0
-458 0 -482 0 -10 0 -74 0 -143 1 -69 1 -131 0 -137 0 -12 -1 -166 0 -198 0
-21 0 -461 0 -482 0 -10 0 -74 0 -143 1 -69 1 -132 0 -140 0 -8 0 -80 0 -160
1 -80 1 -151 0 -157 0 -7 0 -51 0 -98 0 -47 0 -93 0 -102 -1 -186 1 -268 4
-272 3 -2 0 -10 -5 -17 -8 -9 20 -32 111 -90 66 -44 126 -83 132 -89 7 -5 24
-16 40 -24 15 -8 27 -18 27 -23 0 -4 4 -8 10 -8 5 0 78 -45 160 -100 83 -55
153 -100 156 -100 6 0 63 -40 81 -57 7 -6 22 -15 33 -18 11 -3 20 -11 20 -16
0 -5 5 -9 12 -9 6 0 35 -18 64 -40 29 -22 57 -40 63 -40 5 0 11 -3 13 -7 4
-11 154 -113 165 -113 5 0 15 -9 23 -20 8 -11 18 -20 22 -20 7 0 215 -137 228
-150 3 -3 82 -57 175 -119 94 -63 172 -119 173 -123 2 -4 8 -8 13 -8 5 0 31
-15 57 -33 26 -19 99 -69 162 -112 243 -165 265 -180 275 -188 48 -36 174
-119 188 -124 9 -3 17 -9 17 -13 0 -4 14 -13 30 -20 17 -7 30 -16 30 -20 0 -4
28 -24 63 -45 34 -22 64 -42 65 -47 10 -23 19 -2 21 50 2 31 4 73 6 92 4 49
18 275 19 332 1 26 5 50 8 54 4 3 3 17 -2 30 -5 13 -6 24 -2 24 4 0 7 21 8 48
1 42 12 237 19 347 2 22 6 90 10 150 3 61 8 135 10 165 4 51 -9 100 -26 100
-4 0 -51 29 -103 65 -52 36 -100 65 -106 65 -5 0 -10 3 -10 8 0 4 -57 45 -127
92 -71 47 -130 87 -133 90 -3 3 -68 48 -145 99 -77 52 -141 98 -143 103 -2 4
-8 8 -13 8 -6 0 -57 33 -115 73 -57 39 -112 77 -122 82 -9 6 -19 12 -22 15 -3
3 -23 18 -46 33 l-41 27 -1 391 c-1 323 1 390 12 386 7 -3 44 -26 80 -51 37
-25 70 -46 72 -46 3 0 12 -6 19 -12 24 -22 35 -30 225 -158 102 -68 190 -128
195 -132 6 -5 26 -19 45 -31 74 -49 226 -152 237 -162 7 -5 19 -16 28 -23 8
-7 15 -10 15 -7 0 5 108 -70 137 -95 7 -5 15 -10 18 -10 7 0 63 -38 93 -64 12
-11 22 -18 23 -15 2 7 7 79 14 209 4 69 9 143 11 165 2 22 6 87 9 145 3 58 7
137 10 175 2 39 7 120 10 180 4 61 9 126 12 145 2 19 4 44 3 55 -2 26 -2 27 5
125 8 134 10 179 5 182 -37 26 -181 118 -186 118 -3 0 -12 6 -19 13 -34 30
-45 37 -45 31 0 -4 -10 1 -22 12 -28 25 -93 67 -145 95 -13 7 -23 16 -23 21 0
4 -4 8 -10 8 -5 0 -56 31 -112 68 -57 38 -114 75 -127 82 -14 7 -30 17 -35 22
-30 24 -128 88 -136 88 -6 0 -10 5 -10 10 0 6 -4 10 -10 10 -5 0 -51 28 -102
61 -51 34 -111 74 -133 88 -22 14 -42 29 -45 32 -3 3 -9 8 -15 10 -36 15 -105
66 -106 79 -3 52 -4 757 -1 767 3 8 18 3 45 -15 23 -15 44 -30 45 -34 2 -5 10
-8 17 -8 7 0 15 -4 17 -8 2 -4 100 -73 218 -152 118 -79 243 -163 278 -187 35
-24 67 -43 72 -43 4 0 10 -4 12 -8 2 -4 66 -50 143 -102 77 -51 161 -109 187
-127 26 -18 52 -33 57 -33 5 0 11 -4 13 -8 2 -6 165 -118 224 -155 8 -4 12 15
14 61 1 37 4 96 6 132 5 95 12 221 19 340 7 141 14 256 20 366 4 51 8 132 10
180 3 49 7 132 10 185 l5 97 -95 61 c-53 33 -100 61 -105 61 -6 0 -10 3 -10 8
0 4 -27 23 -60 42 -33 19 -60 38 -60 43 0 4 -5 7 -10 7 -6 0 -51 27 -101 60
-50 33 -95 60 -100 60 -5 0 -9 5 -9 10 0 6 -4 10 -9 10 -5 0 -37 18 -70 40
-33 22 -65 40 -71 40 -5 0 -10 4 -10 8 0 5 -22 21 -49 35 -27 15 -54 34 -61
42 -7 8 -17 15 -22 15 -5 0 -29 14 -53 30 -24 17 -46 30 -49 30 -3 0 -14 7
-23 15 -30 25 -327 215 -345 222 -10 3 -18 9 -18 14 0 5 -7 9 -15 9 -8 0 -15
5 -15 10 0 6 -4 10 -10 10 -5 0 -61 34 -123 75 -63 41 -119 75 -125 75 -6 0
-12 3 -14 8 -4 10 -146 102 -157 102 -5 0 -11 3 -13 8 -3 7 -211 143 -232 151
-6 2 -19 12 -30 23 -11 10 -26 18 -33 18 -7 0 -13 5 -13 10 0 6 -7 10 -15 10
-8 0 -15 5 -15 10 0 6 -4 10 -9 10 -6 0 -79 45 -163 100 -84 55 -165 105 -180
111 -16 6 -28 15 -28 19 0 4 -26 23 -57 40 -31 18 -63 38 -71 46 -7 8 -19 14
-27 14 -7 0 -15 4 -17 8 -1 5 -50 39 -108 77 -58 37 -117 77 -133 87 l-27 20
-1 -394z"/>
</g>
</svg>
