<svg width="1699" height="188" viewBox="0 0 1699 188" fill="none" xmlns="http://www.w3.org/2000/svg">
<path d="M181.431 188H0.400391V12.9512H181.431V37.9756H25.4248V162.976H181.431V188ZM160.19 113.049H37.876V88.0244H160.19V113.049ZM234.531 188H209.507V50.5488H341.343C350.783 50.5488 359.653 52.3799 367.954 56.042C376.255 59.6227 383.457 64.5462 389.561 70.8125C395.745 76.9974 400.628 84.2809 404.209 92.6631C407.79 100.964 409.58 109.834 409.58 119.274V188H384.556V119.274C384.556 113.252 383.416 107.596 381.138 102.307C378.859 97.0169 375.767 92.4189 371.86 88.5127C367.954 84.5251 363.356 81.3919 358.066 79.1133C352.858 76.7533 347.284 75.5326 341.343 75.4512H322.056V188H297.031V75.4512H234.531V188ZM605.503 119.274C605.503 128.715 603.713 137.585 600.132 145.886C596.551 154.187 591.668 161.47 585.483 167.736C579.299 173.921 572.056 178.845 563.755 182.507C555.454 186.088 546.584 187.919 537.144 188H443.394V0.5H468.418V162.976H537.144C543.166 162.976 548.781 161.836 553.989 159.558C559.279 157.198 563.877 154.064 567.783 150.158C571.689 146.171 574.782 141.532 577.061 136.242C579.339 130.952 580.479 125.297 580.479 119.274C580.479 113.252 579.339 107.596 577.061 102.307C574.782 97.0169 571.689 92.4189 567.783 88.5127C563.877 84.5251 559.279 81.3919 553.989 79.1133C548.781 76.7533 543.166 75.5326 537.144 75.4512H480.991V50.5488H537.144C546.584 50.5488 555.454 52.3799 563.755 56.042C572.056 59.6227 579.299 64.5462 585.483 70.8125C591.668 76.9974 596.551 84.2809 600.132 92.6631C603.713 100.964 605.503 109.834 605.503 119.274ZM792.637 94.25C792.637 100.354 791.497 106.05 789.219 111.34C786.94 116.63 783.807 121.268 779.819 125.256C775.913 129.162 771.274 132.255 765.903 134.533C760.614 136.812 754.958 137.951 748.936 137.951H653.11C654.901 141.613 657.139 144.991 659.824 148.083C662.51 151.175 665.521 153.82 668.857 156.018C672.194 158.215 675.815 159.924 679.722 161.145C683.709 162.365 687.86 162.976 692.173 162.976H773.96V188H692.173C682.733 187.919 673.862 186.088 665.562 182.507C657.261 178.845 650.018 173.921 643.833 167.736C637.729 161.47 632.887 154.187 629.307 145.886C625.726 137.585 623.936 128.715 623.936 119.274C623.936 109.834 625.726 100.964 629.307 92.6631C632.887 84.3623 637.729 77.1195 643.833 70.9346C650.018 64.6683 657.261 59.7448 665.562 56.1641C673.862 52.502 682.733 50.6302 692.173 50.5488H748.936C754.958 50.5488 760.614 51.6882 765.903 53.9668C771.274 56.2454 775.913 59.3786 779.819 63.3662C783.807 67.2725 786.94 71.8704 789.219 77.1602C791.497 82.4499 792.637 88.1465 792.637 94.25ZM748.936 113.049C751.458 113.049 753.859 112.561 756.138 111.584C758.416 110.607 760.41 109.265 762.119 107.556C763.828 105.847 765.171 103.853 766.147 101.574C767.124 99.2956 767.612 96.8542 767.612 94.25C767.612 91.7272 767.124 89.3265 766.147 87.0479C765.171 84.7692 763.828 82.7754 762.119 81.0664C760.41 79.3574 758.416 78.0146 756.138 77.0381C753.859 75.9801 751.458 75.4512 748.936 75.4512H692.173C686.639 75.4512 681.431 76.4277 676.548 78.3809C671.746 80.334 667.433 83.0195 663.608 86.4375C659.865 89.7741 656.732 93.7617 654.209 98.4004C651.768 102.958 650.181 107.84 649.448 113.049H748.936ZM953.77 75.4512H860.02C857.415 75.4512 854.974 75.9801 852.695 77.0381C850.417 78.0146 848.423 79.3574 846.714 81.0664C845.005 82.7754 843.662 84.7692 842.686 87.0479C841.709 89.3265 841.221 91.7272 841.221 94.25V188H816.196V94.25C816.196 88.1465 817.336 82.4499 819.614 77.1602C821.893 71.8704 825.026 67.2725 829.014 63.3662C833.001 59.3786 837.64 56.2454 842.93 53.9668C848.219 51.6882 853.916 50.5488 860.02 50.5488H953.77V75.4512ZM1193.27 188H1168.25V100.476C1168.25 91.8493 1166.62 83.752 1163.36 76.1836C1160.11 68.6152 1155.63 62.0234 1149.94 56.4082C1144.32 50.7116 1137.69 46.2357 1130.04 42.9805C1122.47 39.6439 1114.37 37.9756 1105.75 37.9756H1092.32V188H1067.29V12.9512H1105.75C1113.72 12.9512 1121.37 14.0091 1128.7 16.125C1136.1 18.1595 1143.02 21.0485 1149.45 24.792C1155.88 28.5355 1161.74 33.0114 1167.03 38.2197C1172.32 43.4281 1176.91 49.2061 1180.82 55.5537C1184.65 49.2061 1189.2 43.4281 1194.49 38.2197C1199.78 33.0114 1205.64 28.5355 1212.07 24.792C1218.5 21.0485 1225.38 18.1595 1232.7 16.125C1240.11 14.0091 1247.8 12.9512 1255.77 12.9512H1294.35V188H1269.32V37.9756H1255.77C1247.15 37.9756 1239.05 39.6439 1231.48 42.9805C1223.91 46.2357 1217.28 50.7116 1211.58 56.4082C1205.97 62.0234 1201.49 68.6152 1198.15 76.1836C1194.9 83.752 1193.27 91.8493 1193.27 100.476V188ZM1364.54 19.2988C1364.54 21.903 1364.05 24.3444 1363.07 26.623C1362.09 28.8203 1360.75 30.7734 1359.04 32.4824C1357.33 34.1914 1355.34 35.5342 1353.06 36.5107C1350.78 37.4873 1348.38 37.9756 1345.86 37.9756C1343.26 37.9756 1340.81 37.4873 1338.54 36.5107C1336.26 35.5342 1334.26 34.1914 1332.55 32.4824C1330.84 30.7734 1329.5 28.8203 1328.53 26.623C1327.55 24.3444 1327.06 21.903 1327.06 19.2988C1327.06 16.776 1327.55 14.3753 1328.53 12.0967C1329.5 9.81803 1330.84 7.82422 1332.55 6.11523C1334.26 4.40625 1336.26 3.06348 1338.54 2.08691C1340.81 1.02897 1343.26 0.5 1345.86 0.5C1348.38 0.5 1350.78 1.02897 1353.06 2.08691C1355.34 3.06348 1357.33 4.40625 1359.04 6.11523C1360.75 7.82422 1362.09 9.81803 1363.07 12.0967C1364.05 14.3753 1364.54 16.776 1364.54 19.2988ZM1358.31 188H1333.29V50.5488H1358.31V188ZM1537.88 144.299C1537.88 150.321 1536.74 156.018 1534.46 161.389C1532.18 166.678 1529.05 171.317 1525.06 175.305C1521.15 179.211 1516.51 182.303 1511.14 184.582C1505.85 186.861 1500.2 188 1494.17 188H1387.85V162.976H1494.17C1496.7 162.976 1499.1 162.487 1501.38 161.511C1503.66 160.534 1505.65 159.191 1507.36 157.482C1509.07 155.773 1510.41 153.82 1511.39 151.623C1512.36 149.344 1512.85 146.903 1512.85 144.299C1512.85 141.776 1512.36 139.375 1511.39 137.097C1510.41 134.818 1509.07 132.824 1507.36 131.115C1505.65 129.406 1503.66 128.063 1501.38 127.087C1499.1 126.029 1496.7 125.5 1494.17 125.5H1425.33C1420.12 125.5 1415.24 124.523 1410.68 122.57C1406.12 120.617 1402.13 117.972 1398.72 114.636C1395.38 111.218 1392.73 107.23 1390.78 102.673C1388.83 98.1156 1387.85 93.2327 1387.85 88.0244C1387.85 82.8161 1388.83 77.9333 1390.78 73.376C1392.73 68.8187 1395.38 64.8717 1398.72 61.5352C1402.13 58.1172 1406.12 55.4316 1410.68 53.4785C1415.24 51.5254 1420.12 50.5488 1425.33 50.5488H1525.42V75.4512H1425.33C1421.83 75.4512 1418.86 76.6719 1416.42 79.1133C1414.06 81.4733 1412.88 84.4437 1412.88 88.0244C1412.88 91.5238 1414.06 94.4941 1416.42 96.9355C1418.86 99.2956 1421.83 100.476 1425.33 100.476H1494.17C1500.2 100.476 1505.85 101.615 1511.14 103.894C1516.51 106.172 1521.15 109.305 1525.06 113.293C1529.05 117.281 1532.18 121.919 1534.46 127.209C1536.74 132.499 1537.88 138.195 1537.88 144.299ZM1611.36 188H1586.34V75.4512H1548.86V50.5488H1586.34V0.5H1611.36V50.5488H1698.89V75.4512H1611.36V188Z" fill="black"/>
<path d="M181.431 188V191H184.431V188H181.431ZM0.400391 188H-2.59961V191H0.400391V188ZM0.400391 12.9512V9.95117H-2.59961V12.9512H0.400391ZM181.431 12.9512H184.431V9.95117H181.431V12.9512ZM181.431 37.9756V40.9756H184.431V37.9756H181.431ZM25.4248 37.9756V34.9756H22.4248V37.9756H25.4248ZM25.4248 162.976H22.4248V165.976H25.4248V162.976ZM181.431 162.976H184.431V159.976H181.431V162.976ZM160.19 113.049V116.049H163.19V113.049H160.19ZM37.876 113.049H34.876V116.049H37.876V113.049ZM37.876 88.0244V85.0244H34.876V88.0244H37.876ZM160.19 88.0244H163.19V85.0244H160.19V88.0244ZM181.431 185H0.400391V191H181.431V185ZM3.40039 188V12.9512H-2.59961V188H3.40039ZM0.400391 15.9512H181.431V9.95117H0.400391V15.9512ZM178.431 12.9512V37.9756H184.431V12.9512H178.431ZM181.431 34.9756H25.4248V40.9756H181.431V34.9756ZM22.4248 37.9756V162.976H28.4248V37.9756H22.4248ZM25.4248 165.976H181.431V159.976H25.4248V165.976ZM178.431 162.976V188H184.431V162.976H178.431ZM160.19 110.049H37.876V116.049H160.19V110.049ZM40.876 113.049V88.0244H34.876V113.049H40.876ZM37.876 91.0244H160.19V85.0244H37.876V91.0244ZM157.19 88.0244V113.049H163.19V88.0244H157.19ZM234.531 188V191H237.531V188H234.531ZM209.507 188H206.507V191H209.507V188ZM209.507 50.5488V47.5488H206.507V50.5488H209.507ZM367.954 56.042L366.743 58.7867L366.754 58.7917L366.766 58.7966L367.954 56.042ZM389.561 70.8125L387.411 72.9057L387.425 72.9199L387.439 72.9338L389.561 70.8125ZM404.209 92.6631L401.45 93.8416L401.454 93.8514L404.209 92.6631ZM409.58 188V191H412.58V188H409.58ZM384.556 188H381.556V191H384.556V188ZM371.86 88.5127L369.717 90.612L369.728 90.6231L369.739 90.634L371.86 88.5127ZM358.066 79.1133L356.828 81.8458L356.854 81.8574L356.88 81.8685L358.066 79.1133ZM341.343 75.4512L341.384 72.4515L341.363 72.4512H341.343V75.4512ZM322.056 75.4512V72.4512H319.056V75.4512H322.056ZM322.056 188V191H325.056V188H322.056ZM297.031 188H294.031V191H297.031V188ZM297.031 75.4512H300.031V72.4512H297.031V75.4512ZM234.531 75.4512V72.4512H231.531V75.4512H234.531ZM234.531 185H209.507V191H234.531V185ZM212.507 188V50.5488H206.507V188H212.507ZM209.507 53.5488H341.343V47.5488H209.507V53.5488ZM341.343 53.5488C350.383 53.5488 358.839 55.2998 366.743 58.7867L369.165 53.2972C360.467 49.46 351.183 47.5488 341.343 47.5488V53.5488ZM366.766 58.7966C374.718 62.2272 381.591 66.9301 387.411 72.9057L391.71 68.7193C385.323 62.1623 377.791 57.0183 369.142 53.2874L366.766 58.7966ZM387.439 72.9338C393.342 78.8367 398.013 85.7964 401.45 93.8416L406.968 91.4846C403.243 82.7654 398.149 75.1581 391.682 68.6912L387.439 72.9338ZM401.454 93.8514C404.866 101.76 406.58 110.225 406.58 119.274H412.58C412.58 109.444 410.713 100.167 406.964 91.4748L401.454 93.8514ZM406.58 119.274V188H412.58V119.274H406.58ZM409.58 185H384.556V191H409.58V185ZM387.556 188V119.274H381.556V188H387.556ZM387.556 119.274C387.556 112.863 386.34 106.801 383.893 101.12L378.382 103.494C380.492 108.391 381.556 113.641 381.556 119.274H387.556ZM383.893 101.12C381.471 95.4964 378.168 90.5776 373.982 86.3914L369.739 90.634C373.365 94.2603 376.248 98.5375 378.382 103.494L383.893 101.12ZM374.003 86.4134C369.815 82.1381 364.89 78.786 359.253 76.358L356.88 81.8685C361.823 83.9978 366.093 86.912 369.717 90.612L374.003 86.4134ZM359.305 76.3807C353.705 73.8435 347.721 72.5383 341.384 72.4515L341.302 78.4509C346.846 78.5268 352.011 79.663 356.828 81.8458L359.305 76.3807ZM341.343 72.4512H322.056V78.4512H341.343V72.4512ZM319.056 75.4512V188H325.056V75.4512H319.056ZM322.056 185H297.031V191H322.056V185ZM300.031 188V75.4512H294.031V188H300.031ZM297.031 72.4512H234.531V78.4512H297.031V72.4512ZM231.531 75.4512V188H237.531V75.4512H231.531ZM585.483 167.736L587.605 169.858L587.612 169.851L587.619 169.844L585.483 167.736ZM563.755 182.507L564.943 185.261L564.955 185.257L564.966 185.252L563.755 182.507ZM537.144 188V191H537.156L537.169 191L537.144 188ZM443.394 188H440.394V191H443.394V188ZM443.394 0.5V-2.5H440.394V0.5H443.394ZM468.418 0.5H471.418V-2.5H468.418V0.5ZM468.418 162.976H465.418V165.976H468.418V162.976ZM553.989 159.558L555.192 162.306L555.202 162.302L555.212 162.297L553.989 159.558ZM567.783 150.158L569.905 152.28L569.915 152.269L569.926 152.258L567.783 150.158ZM567.783 88.5127L565.64 90.612L565.651 90.6231L565.662 90.634L567.783 88.5127ZM553.989 79.1133L552.751 81.8458L552.777 81.8574L552.802 81.8685L553.989 79.1133ZM537.144 75.4512L537.184 72.4514L537.164 72.4512H537.144V75.4512ZM480.991 75.4512H477.991V78.4512H480.991V75.4512ZM480.991 50.5488V47.5488H477.991V50.5488H480.991ZM563.755 56.042L562.544 58.7867L562.555 58.7917L562.567 58.7966L563.755 56.042ZM585.483 70.8125L583.348 72.9199L583.355 72.9269L583.362 72.9338L585.483 70.8125ZM600.132 92.6631L597.373 93.8416L597.377 93.8514L600.132 92.6631ZM602.503 119.274C602.503 128.324 600.789 136.789 597.377 144.697L602.886 147.074C606.636 138.381 608.503 129.105 608.503 119.274H602.503ZM597.377 144.697C593.94 152.665 589.264 159.635 583.348 165.629L587.619 169.844C594.072 163.305 599.162 155.708 602.886 147.074L597.377 144.697ZM583.362 165.615C577.449 171.528 570.518 176.244 562.544 179.762L564.966 185.252C573.593 181.445 581.148 176.315 587.605 169.858L583.362 165.615ZM562.567 179.752C554.649 183.168 546.176 184.922 537.118 185L537.169 191C546.991 190.915 556.259 189.008 564.943 185.261L562.567 179.752ZM537.144 185H443.394V191H537.144V185ZM446.394 188V0.5H440.394V188H446.394ZM443.394 3.5H468.418V-2.5H443.394V3.5ZM465.418 0.5V162.976H471.418V0.5H465.418ZM468.418 165.976H537.144V159.976H468.418V165.976ZM537.144 165.976C543.555 165.976 549.582 164.76 555.192 162.306L552.787 156.809C547.98 158.912 542.777 159.976 537.144 159.976V165.976ZM555.212 162.297C560.82 159.795 565.727 156.458 569.905 152.28L565.662 148.037C562.027 151.671 557.738 154.6 552.767 156.818L555.212 162.297ZM569.926 152.258C574.099 147.998 577.396 143.047 579.816 137.429L574.305 135.055C572.168 140.017 569.28 144.344 565.64 148.059L569.926 152.258ZM579.816 137.429C582.263 131.747 583.479 125.686 583.479 119.274H577.479C577.479 124.907 576.415 130.158 574.305 135.055L579.816 137.429ZM583.479 119.274C583.479 112.863 582.263 106.801 579.816 101.12L574.305 103.494C576.415 108.391 577.479 113.641 577.479 119.274H583.479ZM579.816 101.12C577.393 95.4964 574.091 90.5776 569.905 86.3914L565.662 90.634C569.288 94.2603 572.17 98.5375 574.305 103.494L579.816 101.12ZM569.926 86.4134C565.738 82.1381 560.813 78.786 555.176 76.358L552.802 81.8685C557.745 83.9978 562.016 86.912 565.64 90.612L569.926 86.4134ZM555.227 76.3807C549.623 73.841 543.597 72.5381 537.184 72.4514L537.103 78.4509C542.734 78.527 547.939 79.6655 552.751 81.8458L555.227 76.3807ZM537.144 72.4512H480.991V78.4512H537.144V72.4512ZM483.991 75.4512V50.5488H477.991V75.4512H483.991ZM480.991 53.5488H537.144V47.5488H480.991V53.5488ZM537.144 53.5488C546.184 53.5488 554.64 55.2998 562.544 58.7867L564.966 53.2972C556.268 49.46 546.983 47.5488 537.144 47.5488V53.5488ZM562.567 58.7966C570.523 62.2287 577.442 66.9357 583.348 72.9199L587.619 68.7051C581.155 62.1568 573.589 57.0167 564.943 53.2874L562.567 58.7966ZM583.362 72.9338C589.265 78.8367 593.936 85.7964 597.373 93.8416L602.891 91.4846C599.166 82.7654 594.072 75.1581 587.605 68.6912L583.362 72.9338ZM597.377 93.8514C600.789 101.76 602.503 110.225 602.503 119.274H608.503C608.503 109.444 606.636 100.167 602.886 91.4748L597.377 93.8514ZM779.819 125.256L777.698 123.135L779.819 125.256ZM765.903 134.533L764.732 131.771L764.724 131.775L764.716 131.778L765.903 134.533ZM653.11 137.951V134.951H648.304L650.415 139.269L653.11 137.951ZM679.722 161.145L678.827 164.008L678.835 164.011L678.844 164.013L679.722 161.145ZM773.96 162.976H776.96V159.976H773.96V162.976ZM773.96 188V191H776.96V188H773.96ZM692.173 188L692.147 191L692.16 191H692.173V188ZM665.562 182.507L664.351 185.252L664.362 185.257L664.373 185.261L665.562 182.507ZM643.833 167.736L641.684 169.83L641.698 169.844L641.712 169.858L643.833 167.736ZM629.307 145.886L626.552 147.074L629.307 145.886ZM629.307 92.6631L626.552 91.4748L629.307 92.6631ZM643.833 70.9346L641.698 68.8272L641.698 68.8273L643.833 70.9346ZM665.562 56.1641L666.75 58.9187L666.761 58.9138L666.772 58.9088L665.562 56.1641ZM692.173 50.5488V47.5488H692.16L692.147 47.5489L692.173 50.5488ZM765.903 53.9668L764.716 56.722L764.724 56.7253L764.732 56.7285L765.903 53.9668ZM779.819 63.3662L777.676 65.4656L777.698 65.4876L777.72 65.5093L779.819 63.3662ZM756.138 77.0381L754.874 79.7591L754.915 79.7779L754.956 79.7955L756.138 77.0381ZM676.548 78.3809L675.434 75.5954L675.426 75.5987L675.417 75.602L676.548 78.3809ZM663.608 86.4375L665.604 88.677L665.607 88.6745L663.608 86.4375ZM654.209 98.4004L651.574 96.9671L651.569 96.9754L651.565 96.9837L654.209 98.4004ZM649.448 113.049L646.477 112.631L645.997 116.049H649.448V113.049ZM789.637 94.25C789.637 99.9701 788.571 105.26 786.464 110.153L791.974 112.527C794.424 106.84 795.637 100.737 795.637 94.25H789.637ZM786.464 110.153C784.332 115.101 781.411 119.421 777.698 123.135L781.941 127.377C786.203 123.115 789.548 118.158 791.974 112.527L786.464 110.153ZM777.698 123.135C774.079 126.753 769.768 129.635 764.732 131.771L767.075 137.295C772.781 134.874 777.747 131.571 781.941 127.377L777.698 123.135ZM764.716 131.778C759.819 133.888 754.568 134.951 748.936 134.951V140.951C755.347 140.951 761.409 139.736 767.09 137.288L764.716 131.778ZM748.936 134.951H653.11V140.951H748.936V134.951ZM650.415 139.269C652.321 143.166 654.703 146.762 657.559 150.05L662.089 146.116C659.574 143.219 657.481 140.06 655.805 136.634L650.415 139.269ZM657.559 150.05C660.42 153.344 663.636 156.171 667.207 158.523L670.507 153.512C667.405 151.469 664.6 149.007 662.089 146.116L657.559 150.05ZM667.207 158.523C670.784 160.878 674.66 162.706 678.827 164.008L680.617 158.281C676.971 157.142 673.604 155.552 670.507 153.512L667.207 158.523ZM678.844 164.013C683.125 165.324 687.572 165.976 692.173 165.976V159.976C688.147 159.976 684.293 159.407 680.6 158.276L678.844 164.013ZM692.173 165.976H773.96V159.976H692.173V165.976ZM770.96 162.976V188H776.96V162.976H770.96ZM773.96 185H692.173V191H773.96V185ZM692.199 185C683.141 184.922 674.667 183.168 666.75 179.752L664.373 185.261C673.057 189.008 682.325 190.915 692.147 191L692.199 185ZM666.772 179.762C658.798 176.244 651.867 171.528 645.954 165.615L641.712 169.858C648.169 176.315 655.723 181.445 664.351 185.252L666.772 179.762ZM645.982 165.643C640.142 159.648 635.502 152.674 632.061 144.697L626.552 147.074C630.273 155.699 635.317 163.292 641.684 169.83L645.982 165.643ZM632.061 144.697C628.65 136.789 626.936 128.324 626.936 119.274H620.936C620.936 129.105 622.802 138.381 626.552 147.074L632.061 144.697ZM626.936 119.274C626.936 110.225 628.65 101.76 632.061 93.8514L626.552 91.4748C622.802 100.167 620.936 109.444 620.936 119.274H626.936ZM632.061 93.8514C635.5 85.8787 640.137 78.9508 645.968 73.0418L641.698 68.8273C635.322 75.2881 630.274 82.8459 626.552 91.4748L632.061 93.8514ZM645.968 73.042C651.875 67.0577 658.794 62.3508 666.75 58.9187L664.373 53.4094C655.728 57.1388 648.161 62.2788 641.698 68.8272L645.968 73.042ZM666.772 58.9088C674.685 55.4182 683.15 53.6267 692.199 53.5487L692.147 47.5489C682.316 47.6337 673.04 49.5857 664.351 53.4193L666.772 58.9088ZM692.173 53.5488H748.936V47.5488H692.173V53.5488ZM748.936 53.5488C754.568 53.5488 759.819 54.6122 764.716 56.722L767.09 51.2116C761.409 48.7641 755.347 47.5488 748.936 47.5488V53.5488ZM764.732 56.7285C769.755 58.8597 774.059 61.7734 777.676 65.4656L781.962 61.2669C777.767 56.9838 772.794 53.6311 767.075 51.2051L764.732 56.7285ZM777.72 65.5093C781.42 69.1338 784.334 73.404 786.464 78.347L791.974 75.9733C789.546 70.3368 786.194 65.4112 781.919 61.2231L777.72 65.5093ZM786.464 78.347C788.571 83.2398 789.637 88.5299 789.637 94.25H795.637C795.637 87.7631 794.424 81.66 791.974 75.9733L786.464 78.347ZM748.936 116.049C751.857 116.049 754.661 115.481 757.319 114.341L754.956 108.827C753.057 109.64 751.059 110.049 748.936 110.049V116.049ZM757.319 114.341C759.94 113.218 762.255 111.663 764.24 109.677L759.998 105.434C758.566 106.866 756.893 107.996 754.956 108.827L757.319 114.341ZM764.24 109.677C766.226 107.691 767.782 105.376 768.905 102.756L763.39 100.392C762.56 102.33 761.43 104.002 759.998 105.434L764.24 109.677ZM768.905 102.756C770.049 100.085 770.612 97.2396 770.612 94.25H764.612C764.612 96.4688 764.199 98.506 763.39 100.392L768.905 102.756ZM770.612 94.25C770.612 91.3283 770.044 88.5249 768.905 85.8661L763.39 88.2296C764.204 90.1281 764.612 92.1261 764.612 94.25H770.612ZM768.905 85.8661C767.782 83.2459 766.226 80.931 764.24 78.9451L759.998 83.1877C761.43 84.6198 762.56 86.2925 763.39 88.2296L768.905 85.8661ZM764.24 78.9451C762.255 76.9592 759.94 75.4036 757.319 74.2806L754.956 79.7955C756.893 80.6257 758.566 81.7556 759.998 83.1877L764.24 78.9451ZM757.401 74.3171C754.725 73.0746 751.893 72.4512 748.936 72.4512V78.4512C751.024 78.4512 752.993 78.8857 754.874 79.7591L757.401 74.3171ZM748.936 72.4512H692.173V78.4512H748.936V72.4512ZM692.173 72.4512C686.278 72.4512 680.689 73.4932 675.434 75.5954L677.662 81.1663C682.172 79.3622 687 78.4512 692.173 78.4512V72.4512ZM675.417 75.602C670.301 77.6832 665.693 80.551 661.609 84.2005L665.607 88.6745C669.173 85.488 673.192 82.9847 677.678 81.1597L675.417 75.602ZM661.612 84.198C657.597 87.7764 654.253 92.0411 651.574 96.9671L656.844 99.8337C659.211 95.4824 662.132 91.7717 665.604 88.677L661.612 84.198ZM651.565 96.9837C648.953 101.858 647.258 107.079 646.477 112.631L652.419 113.467C653.103 108.602 654.582 104.058 656.853 99.8171L651.565 96.9837ZM649.448 116.049H748.936V110.049H649.448V116.049ZM953.77 75.4512V78.4512H956.77V75.4512H953.77ZM852.695 77.0381L853.877 79.7955L853.918 79.7779L853.959 79.7591L852.695 77.0381ZM841.221 188V191H844.221V188H841.221ZM816.196 188H813.196V191H816.196V188ZM829.014 63.3662L831.113 65.5093L831.124 65.4985L831.135 65.4875L829.014 63.3662ZM953.77 50.5488H956.77V47.5488H953.77V50.5488ZM953.77 72.4512H860.02V78.4512H953.77V72.4512ZM860.02 72.4512C856.995 72.4512 854.121 73.0686 851.432 74.3171L853.959 79.7591C855.827 78.8917 857.835 78.4512 860.02 78.4512V72.4512ZM851.514 74.2806C848.893 75.4036 846.578 76.9592 844.593 78.9451L848.835 83.1877C850.267 81.7556 851.94 80.6257 853.877 79.7955L851.514 74.2806ZM844.593 78.9451C842.607 80.931 841.051 83.2459 839.928 85.8661L845.443 88.2296C846.273 86.2925 847.403 84.6198 848.835 83.1877L844.593 78.9451ZM839.928 85.8661C838.789 88.5249 838.221 91.3283 838.221 94.25H844.221C844.221 92.1261 844.629 90.1281 845.443 88.2296L839.928 85.8661ZM838.221 94.25V188H844.221V94.25H838.221ZM841.221 185H816.196V191H841.221V185ZM819.196 188V94.25H813.196V188H819.196ZM819.196 94.25C819.196 88.5299 820.262 83.2398 822.37 78.347L816.859 75.9733C814.409 81.66 813.196 87.7631 813.196 94.25H819.196ZM822.37 78.347C824.499 73.404 827.413 69.1338 831.113 65.5093L826.914 61.2231C822.639 65.4112 819.287 70.3368 816.859 75.9733L822.37 78.347ZM831.135 65.4875C834.848 61.7742 839.168 58.8537 844.117 56.722L841.743 51.2116C836.112 53.6372 831.154 56.9829 826.892 61.2449L831.135 65.4875ZM844.117 56.722C849.009 54.6144 854.299 53.5488 860.02 53.5488V47.5488C853.533 47.5488 847.43 48.7619 841.743 51.2116L844.117 56.722ZM860.02 53.5488H953.77V47.5488H860.02V53.5488ZM950.77 50.5488V75.4512H956.77V50.5488H950.77ZM1193.27 188V191H1196.27V188H1193.27ZM1168.25 188H1165.25V191H1168.25V188ZM1149.94 56.4082L1147.8 58.5142L1147.82 58.5296L1147.83 58.5447L1149.94 56.4082ZM1130.04 42.9805L1128.83 45.7255L1128.85 45.7334L1128.86 45.7409L1130.04 42.9805ZM1092.32 37.9756V34.9756H1089.32V37.9756H1092.32ZM1092.32 188V191H1095.32V188H1092.32ZM1067.29 188H1064.29V191H1067.29V188ZM1067.29 12.9512V9.95117H1064.29V12.9512H1067.29ZM1128.7 16.125L1127.86 19.0071L1127.88 19.0126L1127.9 19.0178L1128.7 16.125ZM1167.03 38.2197L1169.13 36.082L1167.03 38.2197ZM1180.82 55.5537L1178.27 57.126L1180.85 61.3217L1183.39 57.102L1180.82 55.5537ZM1232.7 16.125L1233.5 19.0156L1233.51 19.0126L1233.52 19.0096L1232.7 16.125ZM1294.35 12.9512H1297.35V9.95117H1294.35V12.9512ZM1294.35 188V191H1297.35V188H1294.35ZM1269.32 188H1266.32V191H1269.32V188ZM1269.32 37.9756H1272.32V34.9756H1269.32V37.9756ZM1231.48 42.9805L1232.66 45.7364L1232.68 45.731L1232.69 45.7255L1231.48 42.9805ZM1198.15 76.1836L1195.41 74.9734L1195.4 74.9858L1195.4 74.9983L1198.15 76.1836ZM1193.27 185H1168.25V191H1193.27V185ZM1171.25 188V100.476H1165.25V188H1171.25ZM1171.25 100.476C1171.25 91.4612 1169.54 82.9586 1166.12 74.9983L1160.61 77.3689C1163.69 84.5453 1165.25 92.2373 1165.25 100.476H1171.25ZM1166.12 74.9983C1162.72 67.0847 1158.02 60.1672 1152.04 54.2717L1147.83 58.5447C1153.24 63.8797 1157.5 70.1457 1160.61 77.3689L1166.12 74.9983ZM1152.07 54.3022C1146.17 48.3158 1139.21 43.6224 1131.21 40.22L1128.86 45.7409C1136.17 48.849 1142.47 53.1074 1147.8 58.5142L1152.07 54.3022ZM1131.25 40.2354C1123.28 36.7235 1114.77 34.9756 1105.75 34.9756V40.9756C1113.97 40.9756 1121.66 42.5643 1128.83 45.7255L1131.25 40.2354ZM1105.75 34.9756H1092.32V40.9756H1105.75V34.9756ZM1089.32 37.9756V188H1095.32V37.9756H1089.32ZM1092.32 185H1067.29V191H1092.32V185ZM1070.29 188V12.9512H1064.29V188H1070.29ZM1067.29 15.9512H1105.75V9.95117H1067.29V15.9512ZM1105.75 15.9512C1113.45 15.9512 1120.82 16.973 1127.86 19.0071L1129.53 13.2429C1121.92 11.0453 1113.99 9.95117 1105.75 9.95117V15.9512ZM1127.9 19.0178C1135.07 20.9858 1141.74 23.7758 1147.94 27.3845L1150.96 22.1995C1144.3 18.3212 1137.14 15.3332 1129.49 13.2322L1127.9 19.0178ZM1147.94 27.3845C1154.15 31.0021 1159.81 35.3254 1164.92 40.3574L1169.13 36.082C1163.66 30.6974 1157.6 26.0688 1150.96 22.1995L1147.94 27.3845ZM1164.92 40.3574C1170.04 45.3954 1174.49 50.9834 1178.27 57.126L1183.38 53.9814C1179.34 47.4287 1174.59 41.4607 1169.13 36.082L1164.92 40.3574ZM1183.39 57.102C1187.08 50.9699 1191.49 45.3898 1196.6 40.3574L1192.39 36.082C1186.92 41.4663 1182.21 47.4422 1178.25 54.0054L1183.39 57.102ZM1196.6 40.3574C1201.71 35.3254 1207.37 31.0021 1213.58 27.3845L1210.56 22.1995C1203.92 26.0688 1197.86 30.6974 1192.39 36.082L1196.6 40.3574ZM1213.58 27.3845C1219.78 23.773 1226.42 20.9829 1233.5 19.0156L1231.9 13.2344C1224.33 15.3361 1217.22 18.324 1210.56 22.1995L1213.58 27.3845ZM1233.52 19.0096C1240.65 16.973 1248.07 15.9512 1255.77 15.9512V9.95117C1247.53 9.95117 1239.56 11.0453 1231.88 13.2404L1233.52 19.0096ZM1255.77 15.9512H1294.35V9.95117H1255.77V15.9512ZM1291.35 12.9512V188H1297.35V12.9512H1291.35ZM1294.35 185H1269.32V191H1294.35V185ZM1272.32 188V37.9756H1266.32V188H1272.32ZM1269.32 34.9756H1255.77V40.9756H1269.32V34.9756ZM1255.77 34.9756C1246.75 34.9756 1238.24 36.7235 1230.27 40.2354L1232.69 45.7255C1239.86 42.5643 1247.54 40.9756 1255.77 40.9756V34.9756ZM1230.29 40.2246C1222.38 43.6266 1215.43 48.3152 1209.46 54.2869L1213.7 58.5295C1219.12 53.108 1225.44 48.8448 1232.66 45.7364L1230.29 40.2246ZM1209.46 54.2869C1203.57 60.1755 1198.89 67.0797 1195.41 74.9734L1200.9 77.3938C1204.09 70.1508 1208.36 63.8714 1213.7 58.5295L1209.46 54.2869ZM1195.4 74.9983C1191.97 82.9586 1190.27 91.4612 1190.27 100.476H1196.27C1196.27 92.2373 1197.82 84.5453 1200.91 77.3689L1195.4 74.9983ZM1190.27 100.476V188H1196.27V100.476H1190.27ZM1363.07 26.623L1365.81 27.8415L1365.82 27.8232L1365.83 27.8048L1363.07 26.623ZM1328.53 26.623L1325.77 27.8048L1325.78 27.8232L1325.78 27.8415L1328.53 26.623ZM1338.54 2.08691L1339.72 4.84435L1339.76 4.82675L1339.8 4.80794L1338.54 2.08691ZM1353.06 2.08691L1351.8 4.80794L1351.84 4.82675L1351.88 4.84435L1353.06 2.08691ZM1358.31 188V191H1361.31V188H1358.31ZM1333.29 188H1330.29V191H1333.29V188ZM1333.29 50.5488V47.5488H1330.29V50.5488H1333.29ZM1358.31 50.5488H1361.31V47.5488H1358.31V50.5488ZM1361.54 19.2988C1361.54 21.5176 1361.12 23.5548 1360.31 25.4413L1365.83 27.8048C1366.97 25.134 1367.54 22.2884 1367.54 19.2988H1361.54ZM1360.33 25.4046C1359.5 27.2637 1358.37 28.9111 1356.92 30.3611L1361.16 34.6037C1363.13 32.6358 1364.69 30.377 1365.81 27.8415L1360.33 25.4046ZM1356.92 30.3611C1355.49 31.7932 1353.82 32.9231 1351.88 33.7533L1354.24 39.2682C1356.86 38.1452 1359.18 36.5896 1361.16 34.6037L1356.92 30.3611ZM1351.88 33.7533C1349.98 34.567 1347.98 34.9756 1345.86 34.9756V40.9756C1348.78 40.9756 1351.58 40.4077 1354.24 39.2682L1351.88 33.7533ZM1345.86 34.9756C1343.64 34.9756 1341.6 34.5618 1339.72 33.7533L1337.35 39.2682C1340.02 40.4128 1342.87 40.9756 1345.86 40.9756V34.9756ZM1339.72 33.7533C1337.78 32.9231 1336.11 31.7932 1334.68 30.3611L1330.43 34.6037C1332.42 36.5896 1334.73 38.1452 1337.35 39.2682L1339.72 33.7533ZM1334.68 30.3611C1333.23 28.9111 1332.09 27.2637 1331.27 25.4046L1325.78 27.8415C1326.91 30.377 1328.46 32.6358 1330.43 34.6037L1334.68 30.3611ZM1331.28 25.4413C1330.47 23.5548 1330.06 21.5176 1330.06 19.2988H1324.06C1324.06 22.2884 1324.62 25.134 1325.77 27.8048L1331.28 25.4413ZM1330.06 19.2988C1330.06 17.175 1330.47 15.177 1331.28 13.2784L1325.77 10.9149C1324.63 13.5737 1324.06 16.3771 1324.06 19.2988H1330.06ZM1331.28 13.2784C1332.11 11.3414 1333.24 9.66866 1334.68 8.23655L1330.43 3.99392C1328.45 5.97978 1326.89 8.2947 1325.77 10.9149L1331.28 13.2784ZM1334.68 8.23655C1336.11 6.80445 1337.78 5.67452 1339.72 4.84435L1337.35 -0.670521C1334.73 0.452431 1332.42 2.00805 1330.43 3.99392L1334.68 8.23655ZM1339.8 4.80794C1341.67 3.94055 1343.68 3.5 1345.86 3.5V-2.5C1342.84 -2.5 1339.96 -1.88261 1337.27 -0.634113L1339.8 4.80794ZM1345.86 3.5C1347.95 3.5 1349.92 3.93456 1351.8 4.80794L1354.32 -0.634113C1351.65 -1.87662 1348.82 -2.5 1345.86 -2.5V3.5ZM1351.88 4.84435C1353.82 5.67452 1355.49 6.80445 1356.92 8.23655L1361.16 3.99392C1359.18 2.00805 1356.86 0.452431 1354.24 -0.670521L1351.88 4.84435ZM1356.92 8.23655C1358.35 9.66866 1359.48 11.3414 1360.31 13.2784L1365.83 10.9149C1364.71 8.2947 1363.15 5.97978 1361.16 3.99392L1356.92 8.23655ZM1360.31 13.2784C1361.13 15.177 1361.54 17.175 1361.54 19.2988H1367.54C1367.54 16.3771 1366.97 13.5737 1365.83 10.9149L1360.31 13.2784ZM1358.31 185H1333.29V191H1358.31V185ZM1336.29 188V50.5488H1330.29V188H1336.29ZM1333.29 53.5488H1358.31V47.5488H1333.29V53.5488ZM1355.31 50.5488V188H1361.31V50.5488H1355.31ZM1534.46 161.389L1537.21 162.576L1537.22 162.568L1537.22 162.56L1534.46 161.389ZM1525.06 175.305L1522.94 173.183L1525.06 175.305ZM1511.14 184.582L1509.97 181.82L1509.96 181.824L1509.96 181.827L1511.14 184.582ZM1387.85 188H1384.85V191H1387.85V188ZM1387.85 162.976V159.976H1384.85V162.976H1387.85ZM1501.38 161.511L1500.2 158.753L1501.38 161.511ZM1511.39 151.623L1514.13 152.841L1514.14 152.823L1514.14 152.805L1511.39 151.623ZM1501.38 127.087L1500.11 129.808L1500.15 129.827L1500.2 129.844L1501.38 127.087ZM1398.72 114.636L1396.57 116.731L1396.59 116.757L1396.62 116.782L1398.72 114.636ZM1398.72 61.5352L1396.59 59.4138L1398.72 61.5352ZM1525.42 50.5488H1528.42V47.5488H1525.42V50.5488ZM1525.42 75.4512V78.4512H1528.42V75.4512H1525.42ZM1416.42 79.1133L1414.29 76.992L1416.42 79.1133ZM1416.42 96.9355L1414.26 99.0206L1414.29 99.0572L1414.33 99.0925L1416.42 96.9355ZM1511.14 103.894L1509.96 106.649L1509.96 106.652L1509.97 106.655L1511.14 103.894ZM1525.06 113.293L1522.92 115.392L1522.93 115.403L1522.94 115.414L1525.06 113.293ZM1534.46 127.209L1531.7 128.396L1534.46 127.209ZM1534.88 144.299C1534.88 149.932 1533.81 155.229 1531.7 160.217L1537.22 162.56C1539.66 156.807 1540.88 150.71 1540.88 144.299H1534.88ZM1531.7 160.202C1529.57 165.15 1526.65 169.47 1522.94 173.183L1527.18 177.426C1531.44 173.164 1534.79 168.206 1537.21 162.576L1531.7 160.202ZM1522.94 173.183C1519.32 176.802 1515.01 179.684 1509.97 181.82L1512.31 187.344C1518.02 184.923 1522.99 181.62 1527.18 177.426L1522.94 173.183ZM1509.96 181.827C1505.06 183.937 1499.81 185 1494.17 185V191C1500.59 191 1506.65 189.785 1512.33 187.337L1509.96 181.827ZM1494.17 185H1387.85V191H1494.17V185ZM1390.85 188V162.976H1384.85V188H1390.85ZM1387.85 165.976H1494.17V159.976H1387.85V165.976ZM1494.17 165.976C1497.1 165.976 1499.9 165.408 1502.56 164.268L1500.2 158.753C1498.3 159.567 1496.3 159.976 1494.17 159.976V165.976ZM1502.56 164.268C1505.18 163.145 1507.49 161.59 1509.48 159.604L1505.24 155.361C1503.8 156.793 1502.13 157.923 1500.2 158.753L1502.56 164.268ZM1509.48 159.604C1511.45 157.636 1513 155.377 1514.13 152.841L1508.65 150.405C1507.82 152.264 1506.69 153.911 1505.24 155.361L1509.48 159.604ZM1514.14 152.805C1515.29 150.134 1515.85 147.288 1515.85 144.299H1509.85C1509.85 146.518 1509.44 148.555 1508.63 150.441L1514.14 152.805ZM1515.85 144.299C1515.85 141.377 1515.28 138.574 1514.14 135.915L1508.63 138.278C1509.44 140.177 1509.85 142.175 1509.85 144.299H1515.85ZM1514.14 135.915C1513.02 133.295 1511.47 130.98 1509.48 128.994L1505.24 133.237C1506.67 134.669 1507.8 136.341 1508.63 138.278L1514.14 135.915ZM1509.48 128.994C1507.49 127.008 1505.18 125.452 1502.56 124.329L1500.2 129.844C1502.13 130.675 1503.8 131.804 1505.24 133.237L1509.48 128.994ZM1502.64 124.366C1499.96 123.123 1497.13 122.5 1494.17 122.5V128.5C1496.26 128.5 1498.23 128.935 1500.11 129.808L1502.64 124.366ZM1494.17 122.5H1425.33V128.5H1494.17V122.5ZM1425.33 122.5C1420.5 122.5 1416.03 121.598 1411.86 119.813L1409.5 125.328C1414.45 127.449 1419.73 128.5 1425.33 128.5V122.5ZM1411.86 119.813C1407.63 118 1403.95 115.558 1400.81 112.489L1396.62 116.782C1400.31 120.387 1404.61 123.235 1409.5 125.328L1411.86 119.813ZM1400.86 112.54C1397.79 109.397 1395.35 105.722 1393.54 101.491L1388.02 103.855C1390.12 108.738 1392.96 113.039 1396.57 116.731L1400.86 112.54ZM1393.54 101.491C1391.75 97.326 1390.85 92.8473 1390.85 88.0244H1384.85C1384.85 93.6181 1385.9 98.9052 1388.02 103.855L1393.54 101.491ZM1390.85 88.0244C1390.85 83.2015 1391.75 78.7229 1393.54 74.5577L1388.02 72.1942C1385.9 77.1437 1384.85 82.4307 1384.85 88.0244H1390.85ZM1393.54 74.5577C1395.35 70.3332 1397.78 66.7096 1400.84 63.6565L1396.59 59.4138C1392.97 63.0339 1390.12 67.3042 1388.02 72.1942L1393.54 74.5577ZM1400.84 63.6565C1403.98 60.5154 1407.64 58.0427 1411.86 56.236L1409.5 50.7211C1404.6 52.8206 1400.29 55.719 1396.59 59.4138L1400.84 63.6565ZM1411.86 56.236C1416.03 54.4509 1420.5 53.5488 1425.33 53.5488V47.5488C1419.73 47.5488 1414.45 48.5999 1409.5 50.7211L1411.86 56.236ZM1425.33 53.5488H1525.42V47.5488H1425.33V53.5488ZM1522.42 50.5488V75.4512H1528.42V50.5488H1522.42ZM1525.42 72.4512H1425.33V78.4512H1525.42V72.4512ZM1425.33 72.4512C1421.04 72.4512 1417.31 73.9795 1414.29 76.992L1418.54 81.2346C1420.41 79.3643 1422.61 78.4512 1425.33 78.4512V72.4512ZM1414.29 76.992C1411.33 79.9584 1409.88 83.7122 1409.88 88.0244H1415.88C1415.88 85.1752 1416.78 82.9882 1418.54 81.2346L1414.29 76.992ZM1409.88 88.0244C1409.88 92.2754 1411.34 96.0011 1414.26 99.0206L1418.57 94.8505C1416.77 92.9872 1415.88 90.7722 1415.88 88.0244H1409.88ZM1414.33 99.0925C1417.35 102.011 1421.08 103.476 1425.33 103.476V97.4756C1422.58 97.4756 1420.36 96.5797 1418.5 94.7786L1414.33 99.0925ZM1425.33 103.476H1494.17V97.4756H1425.33V103.476ZM1494.17 103.476C1499.81 103.476 1505.06 104.539 1509.96 106.649L1512.33 101.138C1506.65 98.6909 1500.59 97.4756 1494.17 97.4756V103.476ZM1509.97 106.655C1514.99 108.786 1519.3 111.7 1522.92 115.392L1527.2 111.194C1523.01 106.911 1518.03 103.558 1512.31 101.132L1509.97 106.655ZM1522.94 115.414C1526.65 119.128 1529.57 123.447 1531.7 128.396L1537.21 126.022C1534.79 120.391 1531.44 115.434 1527.18 111.172L1522.94 115.414ZM1531.7 128.396C1533.81 133.289 1534.88 138.579 1534.88 144.299H1540.88C1540.88 137.812 1539.66 131.709 1537.21 126.022L1531.7 128.396ZM1611.36 188V191H1614.36V188H1611.36ZM1586.34 188H1583.34V191H1586.34V188ZM1586.34 75.4512H1589.34V72.4512H1586.34V75.4512ZM1548.86 75.4512H1545.86V78.4512H1548.86V75.4512ZM1548.86 50.5488V47.5488H1545.86V50.5488H1548.86ZM1586.34 50.5488V53.5488H1589.34V50.5488H1586.34ZM1586.34 0.5V-2.5H1583.34V0.5H1586.34ZM1611.36 0.5H1614.36V-2.5H1611.36V0.5ZM1611.36 50.5488H1608.36V53.5488H1611.36V50.5488ZM1698.89 50.5488H1701.89V47.5488H1698.89V50.5488ZM1698.89 75.4512V78.4512H1701.89V75.4512H1698.89ZM1611.36 75.4512V72.4512H1608.36V75.4512H1611.36ZM1611.36 185H1586.34V191H1611.36V185ZM1589.34 188V75.4512H1583.34V188H1589.34ZM1586.34 72.4512H1548.86V78.4512H1586.34V72.4512ZM1551.86 75.4512V50.5488H1545.86V75.4512H1551.86ZM1548.86 53.5488H1586.34V47.5488H1548.86V53.5488ZM1589.34 50.5488V0.5H1583.34V50.5488H1589.34ZM1586.34 3.5H1611.36V-2.5H1586.34V3.5ZM1608.36 0.5V50.5488H1614.36V0.5H1608.36ZM1611.36 53.5488H1698.89V47.5488H1611.36V53.5488ZM1695.89 50.5488V75.4512H1701.89V50.5488H1695.89ZM1698.89 72.4512H1611.36V78.4512H1698.89V72.4512ZM1608.36 75.4512V188H1614.36V75.4512H1608.36Z" fill="black"/>
</svg>
